<svg fill="#bbbbbb" xmlns="http://www.w3.org/2000/svg" height="254" width="310" version="1.1" viewBox="0 0 310 254"><path d="m35 0c-19.33 0-35 15.67-35 35 0.0066768 61.193 0 122.71 0 184 0 19.33 15.67 35 35 35h240c19.33 0 35-15.67 35-35v-164c0-19.33-15.67-35-35-35h-133l-18-20h-89zm0 14h81l19 20h140c11.501 0.003 20.86 9.2576 20.992 20.758l-161.99-0.76-19 20h-101v-39.105c0.05803-11.554 9.4454-20.891 21-20.895zm103 48h158v157c0 11.598-9.402 21-21 21h-240c-11.583 0-20.978-9.38-20.998-20.96l-0.002-0.07v-136.97h105l19-20zm-4.6543 71.543a7.5 7.5 0 0 0 -7.5 7.5 7.5 7.5 0 0 0 7.5 7.5 7.5 7.5 0 0 0 7.5 -7.5 7.5 7.5 0 0 0 -7.5 -7.5zm43.309 0a7.5 7.5 0 0 0 -7.5 7.5 7.5 7.5 0 0 0 7.5 7.5 7.5 7.5 0 0 0 7.5 -7.5 7.5 7.5 0 0 0 -7.5 -7.5zm-21.641 28.352a29.168 29.168 0 0 0 -27.168 18.562h10.24a20 20 0 0 1 16.928 -9.3945 20 20 0 0 1 16.945 9.3945h10.195a29.168 29.168 0 0 0 -27.141 -18.562z"/></svg>